<svg id="Capa_1" data-name="Capa 1" xmlns="http://www.w3.org/2000/svg" viewBox="0 0 437.45 455.29"><defs><style>.cls-1{fill:#eba7a8;}</style></defs><path class="cls-1" d="M361.87,357.81c.36,13.25-1.78,50.81-15.76,65.17a15.62,15.62,0,0,1-11.79,5.16c-.62,0-15.23-.8-22.72-70.45-4.51-41.95-4.8-93.74-4.82-127.71,20.61-36.16,41.52-66.59,48.16-75.44q2-2.64,4-5.18c1.61,28.44,2.13,57.06,1.83,80.15l20.68.26c0-.44.54-45.49-2.66-93.68-.19-2.83-.39-5.57-.59-8.26a253,253,0,0,1,30.11-26.07H375.84c-7.66-70.2-20.64-83.35-25.3-88.07C344.4,7.47,338,6.16,333.78,6.16c-7.43,0-14.38,3-20.09,8.74C299.46,29.15,292.5,61,289.14,101.76H259s3.24,59.92,0,84.47c-6.9,52.22-37.34,84.48-37.34,84.48V271h-.31v-.27S190.88,238.45,184,186.23c-3.24-24.55,0-84.47,0-84.47h-36.2C146.46,50.47,141,26.35,128.87,14.2a26.53,26.53,0,0,0-19.14-8h0c-18.12,0-31,17.91-39.37,54.73A343.39,343.39,0,0,0,64,101.76H34.61A250.26,250.26,0,0,1,62.27,125.4c-.14,3.74-.22,7.25-.22,10.43V138c0,63.82,1.49,119.65,4.49,165.94q1,15.31,2.19,29c-21.84,56-41.54,101-42,102l18.93,8.31c1.38-3.14,13-29.77,28-66.71q1.76,11.88,3.74,21.59c4.7,22.82,12.47,49,31.06,49,37.93,0,46.32-55.22,48.17-79.28H183.4c-4.67,51.77-36.76,74.91-36.76,74.91H296.29s-32.09-23.14-36.75-74.91h32.57c6.38,51.77,18.87,80.94,42.21,80.94a36.44,36.44,0,0,0,26.6-11.41c22.49-23.09,21.78-74.38,21.62-80.15ZM328.32,29.52c2.37-2.37,4.16-2.68,5.46-2.68a4.15,4.15,0,0,1,2.05,1.37c9.09,9.21,15.28,38.29,19.22,73.55H309.89C312.72,68.39,318.11,39.74,328.32,29.52Zm-237.8,36c6.94-30.56,15.6-38.63,19.21-38.63a5.82,5.82,0,0,1,4.49,1.95c9.41,9.45,12.16,43.7,12.93,73H84.72A318.83,318.83,0,0,1,90.52,65.47ZM82.74,147.8q2.66,3.28,5.26,6.74c4.42,5.9,15.2,21.41,28,41.8-7.66,27.63-18.39,59.33-29.78,90.43C84,246.64,82.85,200,82.74,147.8Zm54,199.39-.2,10.14c-.43,22.29-7.68,68-27.28,69.12-2.35-2-12.41-14.69-19.45-90.41,14.37-37.06,29.48-78.59,40.73-115.82,24,40.92,49.46,91.67,53,127Zm122.68,0c2.26-22.29,13.22-50.73,27.05-79,.5,29.53,1.58,56,3.54,79Z"/></svg>